<svg version="1.1" id="Layer_1" xmlns="http://www.w3.org/2000/svg" xmlns:xlink="http://www.w3.org/1999/xlink" x="0px" y="0px"
	 width="100%" viewBox="0 0 1024 1024" enable-background="new 0 0 1024 1024" xml:space="preserve">
<path fill="#000000" opacity="1.000000" stroke="none" 
	d="
M672.118652,410.038483 
	C674.185425,412.375275 674.309143,414.840210 674.298767,417.385406 
	C674.266174,425.383484 674.494446,433.388794 674.215698,441.377106 
	C674.077026,445.351349 675.659302,446.826996 679.340271,447.785980 
	C702.555359,453.834290 725.408752,461.056671 747.832214,469.608459 
	C755.943481,472.701904 756.664795,474.144409 754.404114,483.766296 
	C728.347534,474.308594 702.346069,464.834442 675.630859,458.436584 
	C673.683472,460.645782 674.329651,462.739899 674.325806,464.650879 
	C674.282776,486.146088 674.190308,507.642609 674.406189,529.135803 
	C674.453796,533.876099 673.087646,535.572144 668.203857,535.442688 
	C657.048096,535.147034 645.877930,535.338135 634.714539,535.431152 
	C632.492859,535.449646 630.855347,535.209900 630.282654,532.615234 
	C626.607544,515.964111 615.013306,505.288483 601.995789,495.894440 
	C579.530945,479.682709 554.110046,471.615814 526.699524,469.160858 
	C492.505280,466.098358 460.500671,473.053802 430.702332,490.025574 
	C420.648193,495.751984 411.708252,502.970673 404.131287,511.757629 
	C399.297211,517.363708 395.300995,523.514465 393.927856,530.947937 
	C393.308472,534.300964 391.883026,535.600891 388.264313,535.512146 
	C377.106354,535.238464 365.933594,535.186096 354.776215,535.451721 
	C350.098541,535.562988 348.746246,533.867859 348.787201,529.372620 
	C348.982941,507.878876 348.935242,486.382812 348.939880,464.887573 
	C348.941437,457.771149 348.834473,457.728516 341.956390,459.673767 
	C319.038574,466.155212 296.354279,473.348083 274.098755,481.858551 
	C272.592590,482.434509 271.118225,483.429810 269.359528,482.933746 
	C266.766846,475.290924 268.023926,472.429352 275.250092,469.710907 
	C297.550232,461.321747 320.166992,453.893677 343.283997,448.111847 
	C347.740082,446.997345 349.218201,445.032532 349.034058,440.582886 
	C348.724213,433.097595 348.876648,425.588684 348.984558,418.091827 
	C349.098053,410.206085 352.555695,406.829285 360.317841,406.803772 
	C365.316376,406.787323 370.315491,406.792145 375.313690,406.845764 
	C383.077972,406.929047 386.236450,410.080566 386.278198,417.754059 
	C386.307190,423.086090 386.407776,428.421478 386.259979,433.749359 
	C386.163879,437.213898 387.618835,438.125732 390.843323,437.518799 
	C408.176941,434.256256 425.567993,431.331940 443.146698,429.743866 
	C446.865509,429.407898 446.751678,427.039154 446.753387,424.464722 
	C446.764252,408.134979 446.762878,391.805176 446.792999,375.475464 
	C446.808350,367.152893 446.834137,367.149261 454.945892,367.102417 
	C459.444824,367.076447 463.951538,367.222137 468.440582,367.002136 
	C472.680237,366.794312 474.366089,368.342346 474.314056,372.770966 
	C474.124084,388.931824 474.361053,405.097778 474.165741,421.258514 
	C474.113373,425.591553 475.371277,427.367554 479.872986,426.894440 
	C484.003204,426.460327 488.191589,426.531860 492.355560,426.478638 
	C496.883636,426.420807 498.757690,424.449554 498.690918,419.700165 
	C498.468445,403.873413 498.754608,388.039185 498.497345,372.213501 
	C498.431213,368.145264 499.730194,366.906525 503.579376,367.047394 
	C509.070435,367.248291 514.582764,367.256836 520.071167,367.012970 
	C524.288818,366.825562 525.493713,368.576965 525.443481,372.626221 
	C525.247253,388.453796 525.465942,404.286926 525.224731,420.113312 
	C525.161011,424.296570 526.240967,426.314514 530.667419,426.283325 
	C535.491150,426.249329 540.320312,426.563690 545.142090,426.820404 
	C548.529968,427.000732 549.518005,425.169037 549.410522,422.179352 
	C548.806091,405.360199 549.047363,388.544861 549.411072,371.722687 
	C549.491211,368.011597 550.967407,367.099548 554.130554,367.111725 
	C559.962280,367.134125 565.800659,367.218903 571.624207,366.982178 
	C575.813721,366.811951 577.101501,368.572906 577.066711,372.618988 
	C576.921997,389.447113 577.119202,406.278168 576.966431,423.106110 
	C576.926941,427.458313 577.784973,429.503906 582.852783,430.026642 
	C599.071472,431.699707 615.225525,434.068329 631.222961,437.280518 
	C635.474609,438.134155 637.093628,437.107330 636.935303,432.719666 
	C636.743103,427.395447 636.793579,422.052582 636.987244,416.726837 
	C637.216858,410.411652 640.796814,406.941895 647.115662,406.807312 
	C652.611755,406.690277 658.112610,406.811951 663.611023,406.778259 
	C666.734131,406.759155 669.535339,407.534943 672.118652,410.038483 
M605.291443,453.996765 
	C613.778076,455.668884 622.257324,457.380066 630.756348,458.986481 
	C632.963440,459.403656 635.780884,461.290558 636.741699,457.255646 
	C637.929260,452.268524 636.767700,449.661896 632.734497,448.857391 
	C626.867920,447.687164 620.955566,446.747253 615.064453,445.699341 
	C586.346375,440.590973 557.361755,438.110718 528.238953,437.371490 
	C495.589813,436.542816 463.028076,438.163483 430.631470,442.358032 
	C417.116882,444.107819 403.588593,445.926910 390.304474,449.087952 
	C386.585358,449.972931 385.033813,453.584015 386.419128,457.738098 
	C387.626190,461.357849 390.250336,459.026794 392.288269,458.922119 
	C393.436707,458.863159 394.567200,458.463409 395.706848,458.222351 
	C430.457306,450.871094 465.569641,446.473572 501.095459,445.891693 
	C535.775146,445.323700 570.253235,447.787262 605.291443,453.996765 
z"/>
<path fill="#000000" opacity="1.000000" stroke="none" 
	d="
M527.249634,288.546143 
	C526.166809,288.364838 525.496643,288.184814 524.843628,288.233521 
	C521.906982,288.452667 518.139160,286.502350 516.471252,290.407837 
	C514.516968,294.983917 516.602905,300.102264 521.005676,302.512665 
	C545.992371,316.191925 570.992920,329.845764 596.009033,343.471069 
	C598.710022,344.942230 601.060547,346.373413 601.596741,349.901764 
	C602.748291,357.480103 601.569641,359.099915 593.928467,359.100037 
	C539.099854,359.100739 484.271179,359.100464 429.442688,359.011963 
	C426.736115,359.007599 423.097961,360.480103 421.940460,356.167847 
	C420.589996,351.136688 422.129974,346.552155 426.029755,344.392700 
	C442.787689,335.112915 459.573303,325.883057 476.364624,316.663757 
	C485.563873,311.612885 494.763947,306.561768 504.029907,301.635315 
	C506.740509,300.194122 507.565094,298.430969 507.418427,295.259369 
	C507.003113,286.278595 507.060852,277.272003 507.098541,268.276306 
	C507.112701,264.899902 506.369720,260.500397 511.250854,259.956360 
	C515.782227,259.451324 516.085754,263.556030 516.601868,267.254913 
	C522.768066,266.067169 528.274902,267.696564 533.783569,269.616699 
	C536.443726,270.543976 539.269470,270.970245 542.141785,270.137787 
	C545.521484,269.158295 547.215210,270.373016 547.102905,274.039703 
	C546.980408,278.036072 546.945251,282.040253 547.045654,286.036713 
	C547.130432,289.412689 545.374634,290.829956 542.284424,291.215240 
	C537.141907,291.856384 532.387634,290.382751 527.249634,288.546143 
z"/>
<path fill="#000000" opacity="1.000000" stroke="none" 
	d="
M315.236328,608.001831 
	C315.235931,611.166626 314.915649,613.880005 315.299988,616.489746 
	C316.285095,623.178711 313.233521,627.235168 307.836487,630.817322 
	C287.741974,644.154663 259.821014,641.229675 245.672562,623.551880 
	C235.564621,610.922607 233.878784,596.493774 239.534500,581.598877 
	C245.140518,566.834778 256.500732,558.475281 271.942596,555.776733 
	C285.278900,553.446167 297.331268,556.716248 308.221039,564.672180 
	C311.663605,567.187317 313.129303,569.622681 308.970886,572.779175 
	C307.920349,573.576599 306.970825,574.572083 306.173920,575.626953 
	C303.362305,579.348572 300.944214,579.296631 297.275330,576.131165 
	C288.181152,568.284851 273.142212,568.109314 263.793396,575.139465 
	C253.898376,582.580383 250.301270,597.167786 255.443161,609.002319 
	C260.217896,619.991699 272.201050,626.133545 284.664368,624.105774 
	C287.649597,623.620117 290.539154,622.965088 293.280212,621.678772 
	C299.586426,618.719421 301.077332,615.603149 299.678650,608.907410 
	C299.226410,606.742554 297.923828,606.312622 296.107178,606.309204 
	C291.941315,606.301392 287.770508,606.164185 283.611084,606.323730 
	C280.177063,606.455444 278.661407,605.031555 278.857788,601.625916 
	C278.944000,600.130920 278.944061,598.624390 278.873138,597.128296 
	C278.724731,593.997375 280.078064,592.582031 283.296753,592.612549 
	C292.627289,592.700928 301.959351,592.678955 311.290436,592.629211 
	C314.003632,592.614807 315.272797,593.762573 315.230255,596.505554 
	C315.173431,600.170532 315.229675,603.837219 315.236328,608.001831 
z"/>
<path fill="#000000" opacity="1.000000" stroke="none" 
	d="
M473.078247,637.332642 
	C465.688629,637.282959 465.653748,637.282959 465.654114,630.495544 
	C465.655304,607.870667 465.786682,585.244995 465.615112,562.621582 
	C465.580780,558.094604 466.912659,556.473206 471.548553,556.599976 
	C481.855072,556.881775 492.175598,556.744690 502.489014,556.640808 
	C507.099670,556.594299 511.377228,557.705688 515.480469,559.643250 
	C528.778320,565.922607 531.033752,583.783630 519.748596,593.259460 
	C519.244019,593.683105 518.788757,594.165344 518.387268,594.547302 
	C518.167542,595.782349 519.075745,596.103027 519.740356,596.466125 
	C530.910950,602.567932 531.631042,611.879700 529.778259,621.194336 
	C528.010864,630.079834 518.242920,637.015564 508.003906,637.231384 
	C496.529846,637.473206 485.047394,637.315613 473.078247,637.332642 
M479.819550,614.563965 
	C479.709137,616.719849 479.570618,618.874817 479.496277,621.031921 
	C479.422882,623.161682 480.266846,624.660828 482.597809,624.662598 
	C490.405853,624.668518 498.236328,624.948120 506.014618,624.446838 
	C511.727570,624.078613 516.127991,619.166809 516.515625,614.047913 
	C516.872070,609.339722 513.012451,604.914429 507.233490,603.200989 
	C502.001770,601.649658 496.661407,602.355042 491.376343,602.361145 
	C478.453827,602.376038 480.232361,600.587158 479.819550,614.563965 
M500.994415,569.318054 
	C495.333771,569.307861 489.671967,569.362976 484.013000,569.260254 
	C481.150238,569.208313 479.643951,570.185120 479.705383,573.277100 
	C479.787933,577.431885 479.648010,581.590881 479.619812,585.748169 
	C479.602600,588.281921 480.566345,589.911926 483.403198,589.878052 
	C489.728149,589.802551 496.077789,590.087524 502.372162,589.618774 
	C509.431946,589.093018 513.914246,583.573303 512.527466,577.527649 
	C511.265900,572.027832 507.104950,569.895569 500.994415,569.318054 
z"/>
<path fill="#000000" opacity="1.000000" stroke="none" 
	d="
M678.564148,628.435120 
	C669.529602,618.497620 667.679871,607.285156 671.840881,595.234497 
	C675.638611,584.235779 683.503967,577.598999 695.326477,576.371460 
	C703.235046,575.550293 709.964722,578.484741 715.816711,583.804565 
	C717.610413,577.412415 720.631714,575.787842 727.225281,577.192871 
	C729.506348,577.678955 730.187256,579.035095 730.184082,581.089966 
	C730.155823,599.399353 730.724915,617.734985 729.916443,636.009766 
	C729.266418,650.700195 717.912476,659.285339 701.073853,659.659973 
	C692.746216,659.845276 684.809143,658.477722 677.749390,653.792786 
	C675.472168,652.281677 672.640686,650.896240 675.296143,647.170471 
	C679.937256,640.658936 680.342529,640.299133 684.498596,643.177246 
	C690.924255,647.627075 697.882507,648.768860 705.414490,646.875488 
	C713.295654,644.894348 717.676819,637.752319 715.997498,628.988770 
	C703.471558,638.771484 691.042786,638.935181 678.564148,628.435120 
M714.627869,597.046204 
	C710.104797,590.306396 704.147888,587.741333 696.197815,589.361755 
	C689.814026,590.662964 685.823914,594.933533 684.592407,601.028687 
	C683.085144,608.488037 683.882080,615.727478 690.690125,620.796631 
	C694.343750,623.517029 698.504761,624.353210 702.979309,623.407654 
	C714.815247,620.906677 719.737427,610.291321 714.627869,597.046204 
z"/>
<path fill="#000000" opacity="1.000000" stroke="none" 
	d="
M648.620972,632.067139 
	C639.440247,638.830627 629.623169,641.363342 618.850891,636.283569 
	C609.396179,631.825195 604.339294,623.991577 602.715698,613.792419 
	C601.732239,607.614075 602.134888,601.542358 604.080444,595.596069 
	C610.151855,577.040344 630.647766,570.649414 646.330994,582.398254 
	C646.715332,582.686218 647.193115,582.849426 647.681274,583.098328 
	C649.495728,581.668396 648.720215,579.704102 648.746521,578.019165 
	C648.845215,571.698425 648.835754,565.374695 648.771851,559.053101 
	C648.742615,556.160156 649.929688,554.688721 652.910706,554.783630 
	C654.738892,554.841919 656.574341,554.872192 658.399658,554.779053 
	C661.589905,554.616394 662.955200,556.146606 662.941711,559.246765 
	C662.867004,576.382080 662.804016,593.517517 662.772949,610.652954 
	C662.760254,617.629822 662.893494,624.607117 662.847656,631.583496 
	C662.829285,634.371033 663.132568,637.256165 658.736206,637.452698 
	C650.330261,637.828430 649.742676,637.713684 648.620972,632.067139 
M641.025574,591.275269 
	C629.600647,586.197876 619.509521,590.503784 616.730957,601.870911 
	C615.614624,606.437805 615.765198,611.123474 617.426819,615.644775 
	C621.714294,627.311096 636.165344,630.009399 644.685669,620.945251 
	C651.200378,614.014832 651.390137,597.806458 641.025574,591.275269 
z"/>
<path fill="#000000" opacity="1.000000" stroke="none" 
	d="
M336.855835,582.738647 
	C350.931671,573.751587 367.440491,574.179749 378.473145,583.814697 
	C388.156403,592.271240 391.390717,603.048645 388.342896,615.386108 
	C385.253113,627.893372 376.799652,635.361206 364.362122,638.086975 
	C349.472534,641.350098 334.579895,634.642761 328.290741,622.207275 
	C321.442352,608.665955 324.607300,593.643433 336.855835,582.738647 
M348.639954,623.074768 
	C359.303253,627.731079 369.534729,623.640503 372.935364,613.361450 
	C376.242493,603.364990 370.809296,593.084656 360.947021,590.677917 
	C353.498566,588.860229 345.492462,592.350525 342.306488,598.804260 
	C337.940857,607.647766 340.073303,616.619263 348.639954,623.074768 
z"/>
<path fill="#000000" opacity="1.000000" stroke="none" 
	d="
M763.663696,638.516724 
	C749.110474,636.641235 741.079895,628.321350 737.473633,614.867920 
	C734.706482,604.544739 739.233826,589.742920 748.074402,582.793396 
	C757.978271,575.008057 768.814819,574.340027 779.949402,579.789490 
	C789.843689,584.631897 796.455933,598.935425 794.256409,609.496338 
	C793.601501,612.641113 791.368652,612.246399 789.278809,612.254639 
	C778.449158,612.297119 767.619080,612.244202 756.789673,612.311646 
	C755.055054,612.322449 752.832275,611.504578 751.744263,613.455322 
	C750.611084,615.486938 752.117798,617.309998 753.135132,618.972168 
	C758.600159,627.900269 770.457275,629.362549 779.839111,622.322327 
	C783.059753,619.905518 790.522095,623.012634 791.189270,627.070496 
	C791.485352,628.871277 790.053406,629.765320 788.984924,630.731262 
	C781.894653,637.141479 773.467346,639.401001 763.663696,638.516724 
M753.557251,595.129028 
	C752.476624,596.956787 751.120483,598.711060 751.933044,601.211243 
	C752.553955,601.382324 753.174133,601.698792 753.796143,601.702454 
	C761.272949,601.746765 768.750854,601.676819 776.226562,601.780701 
	C780.600098,601.841492 780.886047,599.957642 779.312561,596.493164 
	C774.833008,586.630371 762.168335,585.620422 753.557251,595.129028 
z"/>
<path fill="#000000" opacity="1.000000" stroke="none" 
	d="
M450.297852,589.217712 
	C444.251587,603.875061 438.222260,618.125916 432.499817,632.499084 
	C431.039703,636.166443 429.089294,637.600830 425.105072,637.445496 
	C412.734650,636.963196 415.989349,639.629150 410.955505,627.902893 
	C404.330444,612.469910 398.026611,596.898926 391.596436,581.382446 
	C391.223083,580.481567 390.954742,579.537109 390.438202,578.032166 
	C395.478577,576.355042 400.372833,576.835999 405.197235,577.489929 
	C407.272552,577.771240 407.622498,580.042847 408.273407,581.715149 
	C412.074310,591.480164 415.827576,601.263733 419.623230,611.030823 
	C420.337891,612.869812 421.171234,614.662720 422.238983,617.150574 
	C424.258759,614.859924 425.071136,612.619812 425.916046,610.395569 
	C429.520203,600.907349 433.275818,591.472961 436.661560,581.907532 
	C437.928070,578.329407 439.938873,577.063904 443.628937,577.000549 
	C455.694153,576.793518 455.692535,576.684448 450.844543,587.948547 
	C450.712982,588.254272 450.567627,588.554077 450.297852,589.217712 
z"/>
<path fill="#000000" opacity="1.000000" stroke="none" 
	d="
M558.430176,594.392944 
	C554.355957,598.191284 553.159668,602.762512 553.138611,607.751526 
	C553.103394,616.073242 553.037109,624.396545 553.155151,632.716675 
	C553.210510,636.617188 551.748535,637.987000 547.747559,637.634705 
	C538.996582,636.864197 539.002869,637.031982 539.052795,628.018066 
	C539.136597,612.882080 539.298218,597.745178 539.190247,582.610413 
	C539.158752,578.196350 540.721436,576.430664 545.077698,577.312561 
	C545.565369,577.411255 546.093018,577.562195 546.560547,577.472412 
	C551.949585,576.437927 553.941406,578.903809 552.998291,584.941162 
	C556.030579,582.828674 557.797241,580.424622 560.389160,579.113403 
	C563.573303,577.502625 566.827698,576.554199 570.421570,576.512939 
	C572.916931,576.484375 574.203613,577.354858 574.170532,579.930603 
	C574.144958,581.927368 574.108521,583.928345 574.205505,585.921265 
	C574.357910,589.053467 573.095459,590.500977 569.813599,590.367859 
	C565.678650,590.200195 561.980713,591.629333 558.430176,594.392944 
z"/>
<path fill="#000000" opacity="1.000000" stroke="none" 
	d="
M594.333557,606.000122 
	C594.335632,615.324585 594.232666,624.151001 594.395081,632.972534 
	C594.459290,636.463013 593.223328,637.914673 589.718323,637.435730 
	C588.408936,637.256714 587.044373,637.250427 585.728882,637.390564 
	C581.766479,637.812866 580.577454,636.073120 580.618958,632.189880 
	C580.795288,615.708191 580.680664,599.223572 580.715698,582.740112 
	C580.727539,577.173828 580.966125,577.268799 588.410156,577.018494 
	C592.970459,576.865051 594.622375,578.368774 594.413696,583.026733 
	C594.078796,590.504028 594.330811,598.007568 594.333557,606.000122 
z"/>
<path fill="#000000" opacity="1.000000" stroke="none" 
	d="
M580.652710,557.966187 
	C583.806030,553.657288 587.880676,554.220154 591.700928,555.395935 
	C594.911072,556.383911 595.166565,559.526001 595.103149,562.446716 
	C594.987061,567.799011 593.132996,569.369141 587.129395,569.294434 
	C581.798584,569.228088 579.755371,567.306030 579.809387,562.220398 
	C579.823120,560.924683 580.231934,559.633240 580.652710,557.966187 
z"/>
<path fill="#000000" opacity="1.000000" stroke="none" 
	d="
M723.794434,682.424805 
	C720.725830,687.426697 716.232544,688.726746 712.401306,686.067749 
	C708.468323,683.338318 707.790222,677.086609 711.273682,673.243896 
	C712.906250,671.443054 714.934753,670.040649 714.500000,666.802429 
	C718.782043,667.852539 719.804565,674.821106 725.202209,671.217285 
	C727.276001,675.465820 723.389343,678.483765 723.794434,682.424805 
M720.715698,679.407227 
	C720.756226,676.594788 719.793091,674.404602 716.635193,674.445374 
	C714.033569,674.478821 713.123352,676.620178 712.733337,678.806763 
	C712.350342,680.954102 713.094971,682.872742 715.265930,683.546753 
	C718.167908,684.447632 719.986572,683.088806 720.715698,679.407227 
z"/>
<path fill="#000000" opacity="1.000000" stroke="none" 
	d="
M480.656372,678.138733 
	C479.252716,673.604126 483.950500,670.727356 482.310638,666.470703 
	C487.469360,666.471985 490.020264,669.673218 492.822205,672.555908 
	C490.947723,676.007141 486.741974,672.638977 484.822052,675.814331 
	C486.540955,678.507629 490.307343,676.474609 492.146240,678.596313 
	C490.994324,683.156067 485.691193,678.100159 484.557831,682.350098 
	C486.433563,685.613159 490.945892,682.004272 493.082489,686.158691 
	C489.505432,688.092102 485.547211,688.006348 482.379333,686.717041 
	C479.039124,685.357544 481.211029,681.377502 480.656372,678.138733 
z"/>
<path fill="#000000" opacity="1.000000" stroke="none" 
	d="
M314.333038,675.876221 
	C317.544189,671.859741 319.376892,666.694214 325.597382,666.450134 
	C326.309418,668.608582 324.001709,670.726501 326.372467,672.844910 
	C330.049774,676.130615 330.373749,680.416992 327.428223,684.505676 
	C325.171906,687.637573 321.759186,688.127014 318.480042,686.737122 
	C313.834869,684.768127 313.296112,680.699829 314.333038,675.876221 
M325.329529,677.197205 
	C324.498169,675.090637 323.006683,673.983398 320.703430,674.372986 
	C318.887604,674.680115 317.715637,675.880920 317.436798,677.662354 
	C316.995575,680.481506 317.245667,683.328796 320.782532,683.696533 
	C324.858673,684.120239 325.778564,681.359558 325.329529,677.197205 
z"/>
<path fill="#000000" opacity="1.000000" stroke="none" 
	d="
M662.601318,676.912659 
	C663.041016,677.771729 663.293640,678.387512 663.624268,679.193420 
	C665.896729,676.313293 663.698608,672.852356 666.864380,671.444885 
	C668.810181,673.814148 669.915161,683.658691 668.458252,685.888855 
	C667.097351,687.971924 665.613831,687.191772 664.482483,685.713440 
	C662.922424,683.674805 661.575500,681.473145 660.026367,679.176819 
	C658.153625,681.753357 660.573303,685.332764 656.577087,687.224487 
	C654.824768,682.198853 655.645874,677.290588 655.926941,672.550232 
	C656.044250,670.572327 658.210815,670.887939 659.353943,672.160034 
	C660.556946,673.498718 661.408875,675.153015 662.601318,676.912659 
z"/>
<path fill="#000000" opacity="1.000000" stroke="none" 
	d="
M783.188599,676.420837 
	C783.918518,677.267090 784.463379,677.852295 785.078796,678.513306 
	C787.190552,676.515991 784.719666,672.871704 787.915039,671.562988 
	C789.931580,674.076111 790.811462,684.047180 789.215393,686.055176 
	C787.866516,687.752319 786.555603,687.074036 785.539062,685.749329 
	C784.031067,683.784241 782.690125,681.690979 781.105225,679.402710 
	C779.088806,681.701233 781.629395,685.379272 778.448669,686.912292 
	C776.865051,684.782349 775.917664,673.867126 777.179077,672.302979 
	C778.299500,670.913818 779.546265,671.231384 780.520752,672.430176 
	C781.458618,673.583740 782.184509,674.909607 783.188599,676.420837 
z"/>
<path fill="#000000" opacity="1.000000" stroke="none" 
	d="
M673.693420,673.827393 
	C679.576111,669.023987 684.690735,670.104980 685.668213,676.242737 
	C682.630920,676.617249 679.366394,671.798523 676.588318,676.380249 
	C675.481384,678.205811 675.329956,680.222717 676.444763,682.062317 
	C677.676086,684.094055 679.533142,684.294189 681.570679,683.316956 
	C682.408081,681.377991 679.192566,681.398560 680.028015,679.305115 
	C681.584045,677.764282 683.678711,677.613342 685.660583,678.749512 
	C687.105225,679.577698 686.942322,681.297241 686.750305,682.817078 
	C686.428955,685.359680 684.660645,686.531860 682.453003,687.036499 
	C679.228516,687.773621 676.091736,687.558228 673.841858,684.729553 
	C671.155518,681.352173 671.070862,677.772949 673.693420,673.827393 
z"/>
<path fill="#000000" opacity="1.000000" stroke="none" 
	d="
M263.542145,682.064697 
	C264.531586,684.373169 266.409729,683.615051 267.953949,683.818420 
	C269.405670,684.009521 270.985260,683.898010 271.367523,686.262939 
	C267.968506,688.178589 264.412994,687.295044 260.943268,686.939636 
	C260.461334,686.890259 259.900635,686.157776 259.640289,685.614929 
	C255.840347,677.692261 260.808563,668.056274 269.772186,666.731995 
	C268.921509,669.035217 268.949097,671.163574 271.111542,672.513245 
	C269.250214,675.835266 265.313324,672.771057 263.564301,675.585022 
	C264.486816,679.351990 268.959930,676.076050 270.373383,678.992310 
	C268.822876,681.862427 264.996490,678.873901 263.542145,682.064697 
z"/>
<path fill="#000000" opacity="1.000000" stroke="none" 
	d="
M437.942383,687.325317 
	C431.648499,686.387878 429.113678,683.362610 429.730194,678.020691 
	C430.229340,673.695679 433.813477,670.564758 437.854858,670.923462 
	C443.783142,671.449646 445.231750,675.274231 444.061523,687.460938 
	C442.164093,688.609924 440.264221,686.751404 437.942383,687.325317 
M437.695068,682.983093 
	C439.143555,681.662415 442.042755,681.612122 441.558838,678.599121 
	C441.185150,676.272522 440.086761,674.530945 437.525909,674.381531 
	C435.144287,674.242676 433.737610,675.767212 433.502686,677.884033 
	C433.212250,680.500610 433.163788,683.367615 437.695068,682.983093 
z"/>
<path fill="#000000" opacity="1.000000" stroke="none" 
	d="
M561.284485,684.054688 
	C561.065247,685.600342 560.949158,686.906128 559.378845,686.911316 
	C557.789062,686.916626 557.588806,685.587219 557.547607,684.434570 
	C557.423340,680.958557 557.341980,677.477722 557.392822,674.000854 
	C557.409485,672.862122 557.775818,671.579102 559.287170,671.484680 
	C560.528076,671.407166 560.994934,672.333252 561.140808,673.387817 
	C561.375549,675.085632 561.545410,676.765564 563.840210,676.879028 
	C566.401001,677.005554 566.692566,675.168091 567.074585,673.313660 
	C567.282288,672.305176 567.779053,671.442566 569.009705,671.403870 
	C571.670959,674.582520 571.784119,682.412964 569.178162,686.937256 
	C565.472961,686.859985 568.263428,680.053162 563.360107,681.212219 
	C561.980042,681.538452 561.477905,682.419006 561.284485,684.054688 
z"/>
<path fill="#000000" opacity="1.000000" stroke="none" 
	d="
M400.872742,671.634521 
	C403.120911,675.946655 401.856018,680.286072 402.010376,684.531738 
	C402.046967,685.537842 401.606567,686.551758 400.514282,686.884460 
	C399.167328,687.294861 398.354706,686.433289 397.654816,685.431030 
	C396.437378,683.687439 395.543060,681.674744 393.578796,680.440796 
	C391.041656,681.894470 393.677765,685.474365 390.916138,686.819824 
	C388.764404,686.693420 388.874878,684.998169 388.818176,683.574463 
	C388.725769,681.254822 388.697510,678.923035 388.830322,676.607117 
	C388.936646,674.752747 388.042084,672.215820 390.690369,671.542542 
	C392.968964,670.963196 393.535217,673.349182 394.617798,674.713379 
	C395.520203,675.850403 396.410797,676.996826 397.293518,678.122498 
	C400.204498,676.509399 396.839020,672.376160 400.872742,671.634521 
z"/>
<path fill="#000000" opacity="1.000000" stroke="none" 
	d="
M497.972595,686.905701 
	C494.043732,682.249695 496.602814,677.267700 497.156494,672.569885 
	C497.423035,670.308350 499.762085,671.472534 500.883545,672.909119 
	C502.287903,674.708191 503.093597,676.976379 505.159210,678.395142 
	C506.985901,676.396301 504.387299,672.843750 507.635284,671.445496 
	C509.178772,673.585388 510.167297,684.434875 508.897186,686.052246 
	C507.528534,687.795166 506.304321,686.867554 505.253448,685.612793 
	C503.689392,683.745178 502.921631,681.245544 500.719849,679.752075 
	C499.193512,681.987183 501.386749,685.321167 497.972595,686.905701 
z"/>
<path fill="#000000" opacity="1.000000" stroke="none" 
	d="
M771.535400,679.509033 
	C772.442261,682.089172 773.971375,684.183472 773.311707,686.705566 
	C769.813049,687.387268 770.021790,683.100037 766.999390,683.075867 
	C763.923218,683.051453 763.676819,686.720825 760.988892,686.830139 
	C758.908997,685.140137 760.594543,683.489075 760.963806,681.896851 
	C761.871704,677.981567 764.953430,674.664673 763.787781,670.124878 
	C763.376465,668.523315 765.058960,667.398499 766.671082,667.377319 
	C768.633057,667.351440 770.068542,668.856934 769.634277,670.569214 
	C768.800171,673.858704 770.681396,676.334167 771.535400,679.509033 
z"/>
<path fill="#000000" opacity="1.000000" stroke="none" 
	d="
M641.058472,672.752319 
	C643.565491,670.436890 644.001648,672.172729 644.193115,674.022583 
	C644.862732,680.491455 644.391846,686.556213 637.904358,690.367249 
	C632.476868,686.518311 630.089478,681.333069 631.016846,674.668762 
	C631.218323,673.220642 631.014099,671.287048 633.105408,671.352478 
	C635.127258,671.415833 635.008545,673.330444 635.093201,674.788330 
	C635.199219,676.613037 635.149109,678.446289 635.218750,680.273865 
	C635.287842,682.087708 635.805237,683.698669 638.008545,683.627075 
	C640.177612,683.556641 640.616821,681.902588 640.690552,680.117737 
	C640.786682,677.793091 640.845154,675.466919 641.058472,672.752319 
z"/>
<path fill="#000000" opacity="1.000000" stroke="none" 
	d="
M747.100586,670.902588 
	C750.600830,670.782532 753.625366,670.980469 755.723389,673.596924 
	C758.448669,676.995850 758.515442,680.745361 756.114990,684.228333 
	C753.550354,687.949585 749.524536,687.476685 745.671570,687.051697 
	C745.368652,687.018188 745.050415,686.798584 744.808899,686.586426 
	C742.416687,684.484741 743.810486,672.781128 747.100586,670.902588 
M749.562378,674.434570 
	C746.489380,675.216980 747.468750,677.757202 747.354126,679.736206 
	C747.250305,681.526367 747.059814,683.640503 749.808594,683.656982 
	C752.472168,683.672974 753.641846,682.072571 753.756348,679.569946 
	C753.872986,677.020142 753.208496,674.961975 749.562378,674.434570 
z"/>
<path fill="#000000" opacity="1.000000" stroke="none" 
	d="
M700.982361,686.205078 
	C693.254456,688.517395 690.599854,686.622131 690.652893,679.072144 
	C690.670593,676.554321 689.902344,673.806885 691.692444,671.548218 
	C694.194641,671.650940 694.019043,673.364624 694.103638,674.784302 
	C694.222290,676.777466 694.142029,678.782471 694.256470,680.776062 
	C694.352844,682.454285 695.116089,683.701599 697.010986,683.637207 
	C698.867737,683.574036 699.592468,682.315674 699.680359,680.641174 
	C699.802490,678.313843 699.724182,675.969788 699.959839,673.656189 
	C700.289307,670.422302 702.839783,670.874146 704.920227,671.139648 
	C706.872498,671.388855 707.571167,673.521912 706.525452,674.485657 
	C703.079834,677.661499 704.264954,682.726196 700.982361,686.205078 
z"/>
<path fill="#000000" opacity="1.000000" stroke="none" 
	d="
M305.271729,677.964722 
	C308.663544,677.079163 305.360687,672.829895 308.574310,671.728882 
	C310.126190,673.555481 311.143921,684.456604 309.822205,686.046021 
	C308.369141,687.793396 307.154297,686.692139 306.208557,685.450073 
	C304.747406,683.531189 303.430328,681.502625 301.929657,679.344421 
	C300.169128,681.899170 302.434082,685.242615 298.593353,687.195435 
	C296.529694,681.793457 297.691986,676.696106 298.061432,671.277588 
	C302.636292,671.812744 302.934631,675.738525 305.271729,677.964722 
z"/>
<path fill="#000000" opacity="1.000000" stroke="none" 
	d="
M583.811157,677.006836 
	C584.113525,674.781067 583.068970,672.455322 585.732178,671.545898 
	C589.359131,677.152710 587.779358,683.570496 581.158630,690.370117 
	C574.288208,684.832581 572.130127,677.073608 575.896057,671.385315 
	C577.725342,671.409668 577.986755,672.751038 578.057373,674.116699 
	C578.151733,675.943359 578.067932,677.778748 578.144226,679.606873 
	C578.221619,681.463623 578.273132,683.526001 580.803284,683.650757 
	C583.306580,683.774109 583.701843,681.907166 583.774475,679.934998 
	C583.805115,679.103577 583.798523,678.270874 583.811157,677.006836 
z"/>
<path fill="#000000" opacity="1.000000" stroke="none" 
	d="
M368.154266,683.359253 
	C367.781189,685.153687 367.782593,686.815430 365.712402,686.904236 
	C363.036530,682.974304 363.140503,675.048035 365.959991,671.452759 
	C369.007843,672.193237 367.070190,677.123962 370.951996,677.330322 
	C375.517090,677.573059 372.370941,672.167542 375.464447,671.470764 
	C377.965698,674.398254 378.131226,682.884033 375.782776,686.757324 
	C370.076263,680.791992 370.076263,680.791992 368.154266,683.359253 
z"/>
<path fill="#000000" opacity="1.000000" stroke="none" 
	d="
M418.530212,672.152466 
	C419.456909,677.329346 419.607910,682.151855 418.506531,686.982483 
	C414.184052,686.477661 416.238464,681.360901 412.557648,681.037170 
	C407.782410,680.617371 410.801178,685.847229 408.183075,686.906799 
	C405.127686,684.548096 404.695343,675.689697 407.390259,671.520935 
	C409.290466,671.665405 409.231598,673.145020 409.305237,674.447083 
	C409.418427,676.448303 410.364105,677.492493 412.408997,677.537842 
	C414.449951,677.583130 415.411255,676.624146 415.623810,674.593994 
	C415.779388,673.108276 415.391754,670.820618 418.530212,672.152466 
z"/>
<path fill="#000000" opacity="1.000000" stroke="none" 
	d="
M243.140076,679.177734 
	C243.353317,676.340576 243.098602,673.837280 244.519608,671.610474 
	C246.795792,673.285583 246.795792,673.285583 247.719177,675.714783 
	C250.716156,675.223694 251.515671,670.505859 255.363571,671.388916 
	C256.212708,674.985352 250.601532,675.534729 252.040894,679.020996 
	C253.081680,681.541748 255.531265,683.385132 255.919159,686.601318 
	C251.304703,687.461914 251.487900,682.136658 248.417297,681.240295 
	C245.883438,682.242310 248.102905,685.914795 245.098022,686.940430 
	C242.159302,685.212891 243.471786,682.155823 243.140076,679.177734 
z"/>
<path fill="#000000" opacity="1.000000" stroke="none" 
	d="
M461.152527,673.540527 
	C461.199860,676.293274 461.266235,678.617188 461.189636,680.936401 
	C461.051880,685.106140 459.039917,687.405029 454.664551,687.307129 
	C450.435883,687.212463 448.145416,685.056519 448.068787,680.875671 
	C448.010590,677.701904 447.216248,674.327209 449.482239,671.201660 
	C453.118866,673.059204 451.682922,676.207214 452.068054,678.730286 
	C452.373322,680.730042 451.510315,683.625610 454.732849,683.667725 
	C458.215759,683.713318 457.606079,680.737976 457.721039,678.499023 
	C457.814484,676.679016 457.457977,674.734314 457.987488,673.062378 
	C458.760345,670.622131 460.092560,670.738464 461.152527,673.540527 
z"/>
<path fill="#000000" opacity="1.000000" stroke="none" 
	d="
M594.799561,676.953491 
	C593.997620,680.124329 594.082886,682.610962 597.446533,683.742554 
	C600.087524,684.631042 601.410583,680.466309 604.495667,682.125183 
	C604.313843,686.214722 601.557678,687.203186 598.212280,687.246155 
	C593.839783,687.302429 590.932556,684.202576 590.769836,679.576843 
	C590.611450,675.072510 593.344238,671.276306 597.357788,670.967834 
	C600.835266,670.700562 603.832703,671.620972 604.543213,675.955322 
	C601.266418,677.736145 597.635132,671.123047 594.799561,676.953491 
z"/>
<path fill="#000000" opacity="1.000000" stroke="none" 
	d="
M554.149048,675.196899 
	C554.308777,677.742310 553.787109,680.077942 551.663574,680.468018 
	C547.707947,681.194641 544.885498,682.821716 544.141357,687.258179 
	C541.564087,684.501770 540.789490,673.555481 542.645386,671.760010 
	C545.114136,669.371643 551.669189,671.106995 554.149048,675.196899 
M548.895813,674.512268 
	C547.337524,674.301208 545.672119,674.255127 545.678040,676.355835 
	C545.682312,677.883484 547.168091,677.955444 548.300049,677.734436 
	C550.054565,677.392090 551.141357,676.583740 548.895813,674.512268 
z"/>
<path fill="#000000" opacity="1.000000" stroke="none" 
	d="
M355.415955,674.590942 
	C350.760773,674.318909 349.787933,677.256165 350.671661,680.391479 
	C352.568390,687.120789 356.777893,682.163025 360.925659,681.359741 
	C360.419281,685.460632 358.268188,686.897461 355.129425,687.229431 
	C350.770233,687.690430 347.395874,684.859558 346.843384,680.464661 
	C346.279785,675.981628 349.020203,671.877991 353.128174,671.053711 
	C356.853760,670.306152 359.535980,672.123840 360.480743,676.077332 
	C358.309357,677.686646 357.310059,675.197021 355.415955,674.590942 
z"/>
<path fill="#000000" opacity="1.000000" stroke="none" 
	d="
M616.543579,678.433838 
	C615.900574,675.920105 614.010681,674.050415 615.053894,671.266174 
	C620.343445,671.685425 618.357483,677.604187 621.787354,679.627686 
	C624.553650,677.579163 623.116333,672.138794 628.779541,670.772461 
	C627.841187,676.770020 625.799377,681.661804 623.115173,686.192993 
	C621.953003,688.154907 620.100037,686.921814 619.275513,685.237488 
	C618.259033,683.161011 617.524048,680.946716 616.543579,678.433838 
z"/>
<path fill="#000000" opacity="1.000000" stroke="none" 
	d="
M476.650604,674.785645 
	C473.112274,678.322815 473.316986,683.129578 471.048676,687.253235 
	C468.814941,681.938538 467.280029,676.584900 463.949280,671.769348 
	C468.347778,670.465515 468.410797,675.035767 471.148743,675.351562 
	C473.504059,674.862244 473.608429,671.387756 476.375244,671.222229 
	C478.180542,672.027039 477.345551,673.281982 476.650604,674.785645 
z"/>
<path fill="#000000" opacity="1.000000" stroke="none" 
	d="
M274.876556,673.450623 
	C276.980621,670.096741 283.131409,669.885864 287.121399,673.103638 
	C278.601959,674.839783 284.444916,682.653015 280.942139,687.062073 
	C277.635742,685.078125 278.901367,682.007324 278.856995,679.544373 
	C278.805115,676.661377 278.668091,674.204163 274.876556,673.450623 
z"/>
<path fill="#000000" opacity="1.000000" stroke="none" 
	d="
M384.045898,667.373718 
	C386.836090,669.615173 384.912323,672.400757 385.003601,674.912292 
	C385.146820,678.851868 385.970673,683.007385 384.195648,687.021606 
	C379.858032,684.286987 379.801422,672.413757 384.045898,667.373718 
z"/>
<path fill="#000000" opacity="1.000000" stroke="none" 
	d="
M728.865967,679.949341 
	C729.309265,676.769958 727.794739,673.545532 731.416626,670.845093 
	C734.233826,676.521973 732.584839,681.672852 732.003174,687.406860 
	C727.755127,685.725464 729.245239,682.705872 728.865967,679.949341 
z"/>
<path fill="#000000" opacity="1.000000" stroke="none" 
	d="
M335.779114,672.984619 
	C335.997589,677.900879 337.125519,682.560425 334.829071,687.546936 
	C332.654114,684.345947 331.835449,674.091431 333.227814,672.293579 
	C334.049072,671.233154 334.929047,671.716248 335.779114,672.984619 
z"/>
<path fill="#000000" opacity="1.000000" stroke="none" 
	d="
M528.562317,682.239197 
	C525.483032,682.111694 522.666687,682.935486 519.489197,680.882263 
	C523.165100,677.899292 526.713684,678.481384 529.857422,679.725159 
	C531.780640,680.486145 530.487976,681.742554 528.562317,682.239197 
z"/>
</svg>